# xmcd
#
# Track frame offsets: 
#        150
#        18000
#        32565
#        49691
#        70905
#        89127
#        105824
#        123738
#        139248
#        156614
#
# Disc length: 2320 seconds
#
# Revision: 0
# Processed by: cddbd v1.5.2PL0 Copyright (c) Steve Scherf et al.
# Submitted via: ExactAudioCopy v0.95b4
#
DISCID=85090e0a
DTITLE=เอม อภัสรา - เปลี่ยนพ.ศ.บ่เปลี่ยนใจ
DYEAR=2007
DGENRE=Country
TTITLE0=เปลี่ยนพ.ศ.บ่เปลี่ยนใจ
TTITLE1=ผัวเขามาเว้าหยอก
TTITLE2=เก็บใจไว้เจอกัน
TTITLE3=บันทึกฉบับสุดท้าย
TTITLE4=แต้มลายเสือ
TTITLE5=อยากเห็นหน้าเธอ
TTITLE6=ฝากใจใส่เบอร์โทร
TTITLE7=รับสายน้องแนอ้าย
TTITLE8=ก้อยใจ
TTITLE9=สาวย้อรออ้าย
EXTD=
EXTT0=
EXTT1=
EXTT2=
EXTT3=
EXTT4=
EXTT5=
EXTT6=
EXTT7=
EXTT8=
EXTT9=
PLAYORDER=
